<svg width="442" height="234" viewBox="0 0 442 234" fill="none" xmlns="http://www.w3.org/2000/svg">
<g clip-path="url(#clip0_77_2253)">
<g clip-path="url(#clip1_77_2253)">
<rect width="442" height="234" transform="translate(-0.164062)" fill="url(#paint0_linear_77_2253)"/>
<path d="M-0.163818 73.7031H127.325" stroke="white" stroke-width="1.53639"/>
<path d="M-0.164062 85.1875H32.3857" stroke="white" stroke-width="1.53639"/>
<path d="M137.559 63.9713C137.559 63.9713 137.559 53.4982 128.494 44.9649C119.43 36.4317 105.979 38.5321 105.979 38.5321C105.979 38.5321 95.5552 18.6617 73.2298 21.5724C50.9044 24.4832 45.1589 44.9649 45.1589 44.9649C45.1589 44.9649 34.0578 46.1229 29.0766 50.5207C24.5949 54.4775 21.7664 63.9713 21.7664 63.9713H-0.16394" stroke="white" stroke-width="1.53639"/>
<path d="M441.836 77.4336H357.186" stroke="white" stroke-width="1.02013"/>
<path d="M441.836 85.0547H420.224" stroke="white" stroke-width="1.02013"/>
<path d="M350.391 70.9702C350.391 70.9702 350.391 64.0163 356.41 58.3504C362.428 52.6846 371.359 54.0792 371.359 54.0792C371.359 54.0792 378.28 40.8857 393.104 42.8183C407.928 44.751 411.742 58.3504 411.742 58.3504C411.742 58.3504 419.113 59.1193 422.421 62.0393C425.396 64.6665 427.274 70.9702 427.274 70.9702H441.836" stroke="white" stroke-width="1.02013"/>
</g>
<path d="M-13.7546 147.446C-13.7546 147.446 42.5461 176.176 85.733 185.796C214.824 214.552 284.577 107.162 421.526 115.946C472.058 119.187 488.5 123.248 488.5 123.248" stroke="url(#paint1_linear_77_2253)" stroke-width="2.56065" stroke-linecap="round"/>
<path d="M-15.3478 147.357C-15.3478 147.357 36.3206 179.201 77.8223 191.247C201.877 227.256 287.401 124.162 422.275 140.707C472.041 146.812 493.84 153.959 493.84 153.959" stroke="url(#paint2_linear_77_2253)" stroke-width="2.56065" stroke-linecap="round"/>
<path d="M223.123 87.795L231.944 76.3207L246.074 79.4511L239.444 90.0318" stroke="url(#paint3_radial_77_2253)" stroke-width="1.02738"/>
<path d="M129.597 173.369C133.907 177.25 144.233 175.887 144.233 175.887L130.408 163.626L130.868 162.763L145.228 175.243C145.228 175.243 143.371 163.226 137.474 160.394C133.164 158.324 128.289 156.78 125.231 160.456C121.825 164.548 125.641 169.807 129.597 173.369Z" fill="url(#paint4_linear_77_2253)"/>
<path d="M247.708 152.531C245.529 157.907 250.333 167.149 250.333 167.149L257.143 149.97L258.111 150.109L251.278 167.864C251.278 167.864 261.94 162.02 262.591 155.511C263.067 150.753 262.855 145.644 258.357 144.022C253.349 142.217 249.707 147.598 247.708 152.531Z" fill="url(#paint5_linear_77_2253)"/>
<path d="M231.517 77.3584C226.286 79.8636 223.609 89.93 223.609 89.93L240.215 81.8221L240.837 82.5764L223.826 91.0955C223.826 91.0955 235.643 93.9588 240.509 89.5868C244.066 86.3912 247.351 82.4725 245.119 78.244C242.634 73.5363 236.318 75.0591 231.517 77.3584Z" fill="url(#paint6_linear_77_2253)"/>
<path d="M314.74 88.2611C308.94 88.2825 302.208 96.2302 302.208 96.2302L320.686 96.0222L320.925 96.9703L301.904 97.3762C301.904 97.3762 311.353 105.028 317.624 103.164C322.207 101.801 326.855 99.6684 326.65 94.8913C326.423 89.5729 320.064 88.2414 314.74 88.2611Z" fill="url(#paint7_linear_77_2253)"/>
<path d="M397.965 73.8695C395.356 79.0496 399.391 88.6527 399.391 88.6527L407.578 72.0857L408.531 72.3026L400.275 89.4426C400.275 89.4426 411.378 84.486 412.557 78.0514C413.419 73.3483 413.624 68.239 409.272 66.2565C404.428 64.0494 400.36 69.1152 397.965 73.8695Z" fill="url(#paint8_linear_77_2253)"/>
<path d="M354.518 136.044C354.01 141.822 361.311 149.252 361.311 149.252L362.79 130.832L363.756 130.681L362.424 149.659C362.424 149.659 370.906 140.947 369.622 134.533C368.683 129.844 366.984 125.022 362.208 124.789C356.891 124.53 354.985 130.742 354.518 136.044Z" fill="url(#paint9_linear_77_2253)"/>
</g>
<defs>
<linearGradient id="paint0_linear_77_2253" x1="221" y1="0" x2="221" y2="234" gradientUnits="userSpaceOnUse">
<stop stop-color="#DEE9F5"/>
<stop offset="1" stop-color="#E9E7F8"/>
</linearGradient>
<linearGradient id="paint1_linear_77_2253" x1="278.23" y1="125.831" x2="278.628" y2="181.166" gradientUnits="userSpaceOnUse">
<stop stop-color="#FEFDFF"/>
<stop offset="1" stop-color="#FFE7D1"/>
</linearGradient>
<linearGradient id="paint2_linear_77_2253" x1="278.281" y1="142.413" x2="275.513" y2="197.859" gradientUnits="userSpaceOnUse">
<stop stop-color="#FEFDFF"/>
<stop offset="1" stop-color="#FFE7D1"/>
</linearGradient>
<radialGradient id="paint3_radial_77_2253" cx="0" cy="0" r="1" gradientUnits="userSpaceOnUse" gradientTransform="translate(231.329 77.1209) rotate(32.7213) scale(14.3531 474.955)">
<stop stop-color="#FBE8D7"/>
<stop offset="1" stop-color="#FEFDFF"/>
</radialGradient>
<linearGradient id="paint4_linear_77_2253" x1="145.323" y1="174.453" x2="111.958" y2="159.653" gradientUnits="userSpaceOnUse">
<stop stop-color="#F5BAB9"/>
<stop offset="0.598958" stop-color="#FAE3BF"/>
</linearGradient>
<linearGradient id="paint5_linear_77_2253" x1="252.053" y1="167.684" x2="254.584" y2="131.272" gradientUnits="userSpaceOnUse">
<stop stop-color="#F5BAB9"/>
<stop offset="0.598958" stop-color="#FAE3BF"/>
</linearGradient>
<linearGradient id="paint6_linear_77_2253" x1="224.52" y1="91.4843" x2="250.92" y2="66.2792" gradientUnits="userSpaceOnUse">
<stop stop-color="#F5BAB9"/>
<stop offset="0.598958" stop-color="#FAE3BF"/>
</linearGradient>
<linearGradient id="paint7_linear_77_2253" x1="302.365" y1="98.025" x2="337.02" y2="86.5677" gradientUnits="userSpaceOnUse">
<stop stop-color="#F5BAB9"/>
<stop offset="0.598958" stop-color="#FAE3BF"/>
</linearGradient>
<linearGradient id="paint8_linear_77_2253" x1="401.062" y1="89.3259" x2="406.551" y2="53.2409" gradientUnits="userSpaceOnUse">
<stop stop-color="#F5BAB9"/>
<stop offset="0.598958" stop-color="#FAE3BF"/>
</linearGradient>
<linearGradient id="paint9_linear_77_2253" x1="363.112" y1="149.259" x2="354.865" y2="113.703" gradientUnits="userSpaceOnUse">
<stop stop-color="#F5BAB9"/>
<stop offset="0.598958" stop-color="#FAE3BF"/>
</linearGradient>
<clipPath id="clip0_77_2253">
<rect width="442" height="234" fill="white"/>
</clipPath>
<clipPath id="clip1_77_2253">
<rect width="442" height="234" fill="white" transform="translate(-0.164062)"/>
</clipPath>
</defs>
</svg>
