<svg width="442" height="234" viewBox="0 0 442 234" fill="none" xmlns="http://www.w3.org/2000/svg">
<g clip-path="url(#clip0_77_2513)">
<rect width="442" height="234" fill="url(#paint0_linear_77_2513)"/>
<path d="M159.895 62.4072C159.852 59.5899 162.784 54.8635 162.784 54.8635L162.868 63.865L163.227 63.8065L163.213 54.5056C163.213 54.5056 166.176 57.683 165.529 61.0672C165.057 63.5408 164.295 66.187 162.495 66.9658C160.491 67.8329 159.934 64.9929 159.895 62.4072Z" fill="#A1C3E7"/>
<path d="M187.805 44.3534C188.56 40.7825 193.621 35.6542 193.621 35.6542L191.142 47.0486L191.612 47.0778L194.265 35.3252C194.265 35.3252 197.096 40.1894 195.307 44.2786C194 47.2674 192.277 50.3913 189.78 50.8583C187 51.3783 187.112 47.6309 187.805 44.3534Z" fill="#A1C3E7"/>
<path d="M226.82 72.8323C227.893 69.3434 225.954 62.4039 225.954 62.4039L222.595 73.5703L222.169 73.3677L225.551 61.8036C225.551 61.8036 220.716 64.6843 220.297 69.1278C219.99 72.3756 219.981 75.9427 221.938 77.5624C224.116 79.3657 225.836 76.0344 226.82 72.8323Z" fill="#A1C3E7"/>
<path d="M26.4822 83.5371H52.8422" stroke="white" stroke-width="1.24423"/>
<path d="M138.015 66.3572C138.015 66.3572 138.015 57.8757 130.675 50.9651C123.334 44.0546 112.441 45.7556 112.441 45.7556C112.441 45.7556 103.999 29.6637 85.9192 32.021C67.8392 34.3782 63.1863 50.9651 63.1863 50.9651C63.1863 50.9651 54.1962 51.9029 50.1623 55.4644C46.5329 58.6687 44.2422 66.3572 44.2422 66.3572H26.4822" stroke="white" stroke-width="1.24423"/>
<path d="M226.919 186.591H199.205C199.205 186.591 202.19 174.866 203.347 167.216L203.368 167.079C203.746 164.577 203.965 163.131 204.214 160.574C204.473 157.902 204.647 153.715 204.647 153.715C204.647 153.715 204.475 150.273 204.214 148.083C203.961 145.971 203.88 144.764 203.347 142.705C202.911 141.017 202.508 140.116 201.903 138.481C201.185 136.541 199.918 133.571 199.918 133.571C199.918 133.571 198.81 131.386 198.077 129.998C197.222 128.38 196.68 127.507 195.839 125.882C194.565 123.424 192.77 119.493 192.77 119.493L193.131 118.662L196.357 119.493L196.633 119.132L191.146 114.475L187.897 112.453H184.648L181.435 111.876L178.15 111.226L174.793 110.396L173.024 109.493L170.966 107.905L169.378 107.147H167.717L165.732 107.399L163.169 108.555L159.992 110.396L156.887 113.031L152.7 117.399L150.462 119.818L148.404 120.973L145.733 121.225L141.329 120.973L137.358 120.251L132.232 118.735L128.802 116.785L133.17 118.049L137.105 118.735H142.123L144.65 117.796C144.65 117.796 145.797 117.222 146.491 116.785C148.082 115.783 148.767 114.93 150.173 113.681C152.186 111.893 152.986 110.511 155.155 108.916C156.516 107.914 158.837 106.641 158.837 106.641L163.602 104.223L165.948 103.373L168.078 103.176L169.378 103.373L171.796 104.006L172.446 104.656H173.024V104.006L170.425 98.158L168.945 94.6223L167.428 91.0104L167.031 85.054L165.768 76.318L163.927 70.6865L163.457 70.145H163.241L162.591 69.8562L162.086 69.6396L161.58 69.1703L161.4 68.7732L161.075 68.0513L160.75 67.4376L160.497 66.4629V65.9214H161.58H162.591L163.457 66.2824L164.107 66.7878L164.757 68.0513V69.1703L165.118 70.3977L167.031 76.318L168.945 81.6607L170.425 86.1731L171.796 89.9274L173.024 93.3207L174.251 97.1833L176.634 101.082L178.872 103.373L180.569 104.475L182.085 105.197H183.709L185.731 104.475L186.669 103.373L186.886 101.082L186.669 97.7248L185.731 94.6223L184.106 91.0104L182.843 88.5917L178.583 86.6785L173.637 84.283L176.309 84.6569L179.052 85.054L182.085 86.1731L183.709 87.1839L185.731 89.1693L187.211 91.9299L188.294 94.9091L189.196 100.176V105.735L189.754 106.002H190.241L193.646 106.847L196.357 107.681L198.937 109.002L201.256 110.392L202.611 111.925L203.48 113.38L203.827 111.925L204.071 110.565L203.827 108.752L203.48 107.065L202.611 105.735L200.457 103.373L198.937 100.176L196.755 94.6223L195.665 88.2709L195.883 80.2839L196.262 73.3665V72.5829L194.775 69.9889L191.884 64.2875L189.56 57.9106L189.912 49.291L191.101 57.3973L192.965 60.5857L196.072 67.5841L197.883 71.6913V72.3398L198.072 77.2846L198.369 80.2839L198.937 84.283L199.531 87.7957L200.828 91.9299L202.99 95.7669L205.503 99.3877L207.664 102.414L209.988 106.002L211.528 109.196L212.222 111.358V111.925V115.814H212.41L216.52 111.559L218.719 108.752L219.646 107.065L219.761 106.002L219.009 102.414L218.227 99.6062L216.896 96.9146L214.899 94.7439L212.815 92.9785L210.587 91.0393L208.619 88.2709L207.345 85.804L207.172 82.2699L207.548 78.5085L209.198 73.8189L210.587 72.0245L209.805 76.6552V82.0095L210.231 85.5708L211.65 88.2709L213.867 90.1816L216.571 93.152L220.606 97.5115H220.998L220.164 78.5085L223.256 85.804L223.673 86.2556V85.9777L224.888 84.2059L227.737 81.4962C227.737 81.4962 230.682 78.6615 232.809 77.154C233.964 76.3358 235.866 75.2082 235.866 75.2082C235.866 75.2082 238.077 74.167 239.479 73.4712C241.409 72.5137 242.618 72.177 244.378 70.9351C245.495 70.147 247.053 68.677 247.053 68.677L249.728 65.6893L252.924 61.3121L254.209 58.7065L261.54 53.1481L255.877 60.0962L255.634 60.8604L253.897 64.6473L251.777 67.7392C251.777 67.7392 250.006 70.2609 248.547 71.5606C247.346 72.6295 246.515 73.0335 245.177 73.923C243.163 75.2611 241.884 75.7785 239.896 77.154C237.026 79.1395 235.424 80.3223 232.983 82.8166C231.055 84.7869 230.043 85.9855 228.501 88.2709C227.17 90.2449 226.219 91.312 225.514 93.5862C224.906 95.5437 225.078 96.7564 224.888 98.7972C224.589 102.016 224.472 107.065 224.472 107.065C224.472 107.065 228.431 106.795 230.933 106.371C234.798 105.714 237.021 105.303 240.626 103.765C242.551 102.944 243.685 102.52 245.385 101.299C246.339 100.614 247.678 99.3531 247.678 99.3531L250.353 94.8367C250.353 94.8367 251.193 92.9761 251.986 91.9534C252.762 90.9525 253.272 90.4163 254.314 89.6953C255.176 89.0977 256.711 88.4793 256.711 88.4793L255.495 92.1964L254.8 94.8367L253.514 97.4771L251.708 101.854V102.41H253.723L257.127 103.001L260.393 103.939L262.79 104.946L265.882 106.544L267.689 107.83L270.051 110.435L272.9 112.45L274.393 113.423C274.393 113.423 277.527 115.037 279.639 115.82C281.81 116.624 283.089 116.9 285.337 117.453C287.021 117.867 289.679 118.391 289.679 118.391L282.002 120.614L280.82 120.301C279.131 119.786 276.721 118.391 276.721 118.391L271.128 115.82L267.306 113.631L263.45 110.991L258.656 106.926L256.363 106.127L254.626 106.336C254.626 106.336 250.266 108.308 247.47 109.567C244.147 111.063 242.328 112.002 238.958 113.388C235.001 115.016 228.675 117.175 228.675 117.175H234.963L240.244 118.703L245.455 121.135L251.501 124.813C251.501 124.813 259.972 127.734 265.601 127.808C269.729 127.862 276.083 126.435 276.083 126.435C276.083 126.435 273.957 129.51 271.965 130.678C269.763 131.969 268.139 131.895 265.601 132.175C256.702 133.159 243.889 124.813 243.889 124.813C243.889 124.813 240.42 123.445 238.149 123.69C236.678 123.849 235.95 124.397 234.531 124.813C231.106 125.819 228.504 124.889 225.671 127.059C221.271 130.431 223.118 135.345 222.052 140.785C220.173 150.38 218.766 156.05 220.056 165.742C221.187 174.239 226.919 186.591 226.919 186.591Z" fill="url(#paint1_linear_77_2513)"/>
<path d="M258.044 82.152C260.115 78.6753 267.375 75.9188 267.375 75.9188L260.691 86.9728L261.187 87.269L268.185 75.9216C268.185 75.9216 269.522 82.8269 266.155 86.2884C263.693 88.8184 260.737 91.2627 257.881 90.3689C254.702 89.3737 256.143 85.3429 258.044 82.152Z" fill="#A1C3E7"/>
<path d="M289.628 112.066C290.983 109.791 295.735 107.987 295.735 107.987L291.36 115.221L291.685 115.415L296.265 107.989C296.265 107.989 297.14 112.508 294.936 114.773C293.325 116.429 291.39 118.029 289.522 117.444C287.441 116.793 288.384 114.155 289.628 112.066Z" fill="#A1C3E7"/>
<path d="M173.254 76.3884C173.213 73.7323 175.978 69.2764 175.978 69.2764L176.057 77.7628L176.395 77.7077L176.382 68.9389C176.382 68.9389 179.175 71.9345 178.566 75.1251C178.12 77.4572 177.402 79.952 175.705 80.6863C173.816 81.5038 173.291 78.8262 173.254 76.3884Z" fill="#A1C3E7"/>
<path d="M209.202 64.8019C209.751 62.203 213.435 58.4706 213.435 58.4706L211.631 66.7635L211.973 66.7847L213.904 58.2311C213.904 58.2311 215.963 61.7713 214.662 64.7474C213.71 66.9227 212.457 69.1963 210.639 69.5362C208.616 69.9146 208.698 67.1873 209.202 64.8019Z" fill="#A1C3E7"/>
<path d="M266.741 50.877C267.521 48.3378 266.111 43.2872 266.111 43.2872L263.665 51.4141L263.356 51.2667L265.817 42.8503C265.817 42.8503 262.298 44.9469 261.993 48.1809C261.77 50.5446 261.763 53.1408 263.187 54.3196C264.773 55.632 266.025 53.2075 266.741 50.877Z" fill="#A1C3E7"/>
<path d="M278.354 127.159C280.159 125.21 281.08 120.048 281.08 120.048L275.35 126.309L275.135 126.041L281.005 119.527C281.005 119.527 276.925 119.889 275.246 122.67C274.019 124.703 272.887 127.039 273.658 128.719C274.517 130.589 276.697 128.948 278.354 127.159Z" fill="#A1C3E7"/>
<path d="M215.575 181.664C214.636 179.179 215.724 174.05 215.724 174.05L218.679 182.006L218.978 181.839L215.99 173.595C215.99 173.595 219.634 175.465 220.143 178.673C220.516 181.018 220.687 183.608 219.34 184.875C217.84 186.285 216.438 183.945 215.575 181.664Z" fill="url(#paint2_linear_77_2513)"/>
<path d="M251.758 182.905C253.421 180.833 253.975 175.619 253.975 175.619L248.702 182.268L248.469 182.017L253.863 175.104C253.863 175.104 249.819 175.753 248.341 178.646C247.261 180.76 246.296 183.17 247.185 184.792C248.174 186.597 250.232 184.806 251.758 182.905Z" fill="url(#paint3_linear_77_2513)"/>
<path d="M312.856 183.124C314.519 181.052 315.073 175.837 315.073 175.837L309.8 182.487L309.567 182.236L314.961 175.323C314.961 175.323 310.917 175.972 309.439 178.865C308.359 180.979 307.394 183.389 308.282 185.011C309.272 186.816 311.33 185.025 312.856 183.124Z" fill="url(#paint4_linear_77_2513)"/>
<path d="M213.695 184.333C211.612 182.684 209.908 177.725 209.908 177.725L216.532 183.03L216.704 182.733L209.902 177.199C209.902 177.199 213.989 176.929 216.075 179.419C217.6 181.239 219.079 183.373 218.575 185.151C218.013 187.132 215.607 185.845 213.695 184.333Z" fill="#A1C3E7"/>
<path d="M249.122 181.74C249.439 179.103 247.156 174.383 247.156 174.383L246.19 182.814L245.86 182.724L246.789 174.005C246.789 174.005 243.698 176.692 243.971 179.929C244.17 182.295 244.624 184.851 246.235 185.759C248.028 186.769 248.83 184.161 249.122 181.74Z" fill="#A1C3E7"/>
<path d="M310.219 181.957C310.537 179.32 308.253 174.599 308.253 174.599L307.288 183.031L306.957 182.941L307.887 174.222C307.887 174.222 304.796 176.909 305.069 180.146C305.268 182.512 305.722 185.068 307.333 185.975C309.126 186.986 309.928 184.378 310.219 181.957Z" fill="#A1C3E7"/>
<path d="M417.168 57.3359H325.446" stroke="white" stroke-width="1.10535"/>
<path d="M417.167 65.5957H393.749" stroke="white" stroke-width="1.10535"/>
<path d="M318.084 50.3323C318.084 50.3323 318.084 42.7975 324.605 36.6583C331.126 30.5191 340.804 32.0302 340.804 32.0302C340.804 32.0302 348.303 17.7345 364.365 19.8286C380.427 21.9228 384.56 36.6583 384.56 36.6583C384.56 36.6583 392.547 37.4914 396.131 40.6554C399.355 43.5021 401.39 50.3323 401.39 50.3323H417.168" stroke="white" stroke-width="1.10535"/>
<path d="M403.708 194.378C403.708 194.378 362.754 213.587 331.331 220C237.401 239.172 186.555 167.16 86.8909 172.942C50.1166 175.076 38.1535 177.785 38.1535 177.785" stroke="url(#paint5_linear_77_2513)" stroke-width="1.86364" stroke-linecap="round"/>
<path d="M404.867 194.316C404.867 194.316 367.286 215.615 337.091 223.656C246.832 247.692 184.512 178.547 86.3646 189.533C50.1499 193.586 34.2898 198.359 34.2898 198.359" stroke="url(#paint6_linear_77_2513)" stroke-width="1.86364" stroke-linecap="round"/>
<path d="M121.081 115.114C118.341 113.908 116.795 108.758 116.795 108.758L125.495 112.669L125.804 112.269L116.888 108.153C116.888 108.153 122.938 106.482 125.52 108.658C127.407 110.248 129.166 112.216 128.084 114.434C126.879 116.904 123.596 116.222 121.081 115.114Z" fill="#A1C3E7"/>
</g>
<defs>
<linearGradient id="paint0_linear_77_2513" x1="221" y1="0" x2="221" y2="234" gradientUnits="userSpaceOnUse">
<stop stop-color="#DEE9F5"/>
<stop offset="1" stop-color="#E9E7F8"/>
</linearGradient>
<linearGradient id="paint1_linear_77_2513" x1="209.241" y1="49.291" x2="209.241" y2="186.591" gradientUnits="userSpaceOnUse">
<stop stop-color="#F3A696"/>
<stop offset="0.380208" stop-color="#F3A696"/>
<stop offset="1" stop-color="#F9DABC"/>
</linearGradient>
<linearGradient id="paint2_linear_77_2513" x1="216.243" y1="173.608" x2="223.212" y2="189.733" gradientUnits="userSpaceOnUse">
<stop stop-color="#F2A393"/>
<stop offset="0.328125" stop-color="#F2A393"/>
<stop offset="1" stop-color="#FAE3BF"/>
</linearGradient>
<linearGradient id="paint3_linear_77_2513" x1="253.618" y1="175.038" x2="241.998" y2="188.212" gradientUnits="userSpaceOnUse">
<stop stop-color="#F2A393"/>
<stop offset="0.328125" stop-color="#F2A393"/>
<stop offset="1" stop-color="#FAE3BF"/>
</linearGradient>
<linearGradient id="paint4_linear_77_2513" x1="314.716" y1="175.257" x2="303.096" y2="188.431" gradientUnits="userSpaceOnUse">
<stop stop-color="#F2A393"/>
<stop offset="0.328125" stop-color="#F2A393"/>
<stop offset="1" stop-color="#FAE3BF"/>
</linearGradient>
<linearGradient id="paint5_linear_77_2513" x1="191.188" y1="179.674" x2="190.904" y2="216.752" gradientUnits="userSpaceOnUse">
<stop stop-color="#FFE7D1"/>
<stop offset="1" stop-color="#FEFDFF"/>
</linearGradient>
<linearGradient id="paint6_linear_77_2513" x1="191.163" y1="190.784" x2="192.833" y2="227.956" gradientUnits="userSpaceOnUse">
<stop stop-color="#FFE7D1"/>
<stop offset="1" stop-color="#FEFDFF"/>
</linearGradient>
<clipPath id="clip0_77_2513">
<rect width="442" height="234" fill="white"/>
</clipPath>
</defs>
</svg>
