<svg width="389" height="206" viewBox="0 0 389 206" fill="none" xmlns="http://www.w3.org/2000/svg">
<path d="M-27 -0.972656L415 -0.972656V85.0273C415 151.302 361.274 205.027 295 205.027H93C26.7258 205.027 -27 151.301 -27 85.0273L-27 -0.972656Z" fill="url(#paint0_linear_61_86)"/>
<path d="M-1.82617 72.248H125.663" stroke="white" stroke-width="1.53639"/>
<path d="M-1.82617 83.7324H30.7236" stroke="white" stroke-width="1.53639"/>
<path d="M135.897 62.5162C135.897 62.5162 135.897 52.0431 126.832 43.5099C117.768 34.9766 104.317 37.077 104.317 37.077C104.317 37.077 93.8929 17.2066 71.5675 20.1174C49.2421 23.0281 43.4967 43.5099 43.4967 43.5099C43.4967 43.5099 32.3956 44.6678 27.4144 49.0656C22.9327 53.0224 20.1042 62.5162 20.1042 62.5162H-1.82617" stroke="white" stroke-width="1.53639"/>
<path d="M366.541 97.3242H281.891" stroke="white" stroke-width="1.02013"/>
<path d="M366.541 104.945H344.928" stroke="white" stroke-width="1.02013"/>
<path d="M275.095 90.8608C275.095 90.8608 275.095 83.9069 281.114 78.2411C287.133 72.5752 296.063 73.9698 296.063 73.9698C296.063 73.9698 302.985 60.7763 317.808 62.709C332.632 64.6416 336.447 78.2411 336.447 78.2411C336.447 78.2411 343.818 79.0099 347.125 81.9299C350.101 84.5572 351.979 90.8608 351.979 90.8608H366.54" stroke="white" stroke-width="1.02013"/>
<defs>
<linearGradient id="paint0_linear_61_86" x1="194" y1="-0.972656" x2="194" y2="205.027" gradientUnits="userSpaceOnUse">
<stop stop-color="#DEE9F5"/>
<stop offset="1" stop-color="#E9E7F8"/>
</linearGradient>
</defs>
</svg>
