<svg width="49" height="68" viewBox="0 0 49 68" fill="none" xmlns="http://www.w3.org/2000/svg">
<path d="M10.366 33.9683V14.6761C10.366 10.8387 11.8905 7.15842 14.6039 4.44493C17.3174 1.73145 20.9977 0.207031 24.8351 0.207031C28.6726 0.207031 32.3529 1.73145 35.0664 4.44493C37.7798 7.15842 39.3043 10.8387 39.3043 14.6761V33.9683C39.3043 37.8057 37.7798 41.486 35.0664 44.1995C32.3529 46.913 28.6726 48.4374 24.8351 48.4374C20.9977 48.4374 17.3174 46.913 14.6039 44.1995C11.8905 41.486 10.366 37.8057 10.366 33.9683ZM48.9503 33.9683C48.9503 33.3287 48.6963 32.7153 48.244 32.2631C47.7918 31.8108 47.1784 31.5568 46.5388 31.5568C45.8992 31.5568 45.2859 31.8108 44.8336 32.2631C44.3814 32.7153 44.1273 33.3287 44.1273 33.9683C44.1273 39.0849 42.0947 43.9919 38.4768 47.6099C34.8588 51.2279 29.9517 53.2604 24.8351 53.2604C19.7186 53.2604 14.8115 51.2279 11.1935 47.6099C7.57556 43.9919 5.54301 39.0849 5.54301 33.9683C5.54301 33.3287 5.28894 32.7153 4.83669 32.2631C4.38444 31.8108 3.77106 31.5568 3.13149 31.5568C2.49191 31.5568 1.87854 31.8108 1.42629 32.2631C0.974041 32.7153 0.719971 33.3287 0.719971 33.9683C0.727314 39.9444 2.95039 45.7056 6.9593 50.1377C10.9682 54.5698 16.4782 57.3579 22.4236 57.9629V65.318C22.4236 65.9576 22.6777 66.571 23.1299 67.0232C23.5822 67.4755 24.1956 67.7295 24.8351 67.7295C25.4747 67.7295 26.0881 67.4755 26.5403 67.0232C26.9926 66.571 27.2467 65.9576 27.2467 65.318V57.9629C33.1921 57.3579 38.7021 54.5698 42.711 50.1377C46.7199 45.7056 48.943 39.9444 48.9503 33.9683Z" fill="white"/>
</svg>
